<svg width="216" height="39" viewBox="0 0 216 39" fill="none" xmlns="http://www.w3.org/2000/svg">
<rect x="0.5" y="0.5" width="215" height="29" rx="7.5" fill="white" stroke="black"/>
<path d="M29.936 13.216C29.936 13.664 29.828 14.084 29.612 14.476C29.404 14.868 29.072 15.184 28.616 15.424C28.168 15.664 27.6 15.784 26.912 15.784H25.508V19H23.828V10.624H26.912C27.56 10.624 28.112 10.736 28.568 10.96C29.024 11.184 29.364 11.492 29.588 11.884C29.82 12.276 29.936 12.72 29.936 13.216ZM26.84 14.428C27.304 14.428 27.648 14.324 27.872 14.116C28.096 13.9 28.208 13.6 28.208 13.216C28.208 12.4 27.752 11.992 26.84 11.992H25.508V14.428H26.84ZM32.8088 10.12V19H31.1288V10.12H32.8088ZM40.6486 15.532C40.6486 15.772 40.6326 15.988 40.6006 16.18H35.7406C35.7806 16.66 35.9486 17.036 36.2446 17.308C36.5406 17.58 36.9046 17.716 37.3366 17.716C37.9606 17.716 38.4046 17.448 38.6686 16.912H40.4806C40.2886 17.552 39.9206 18.08 39.3766 18.496C38.8326 18.904 38.1646 19.108 37.3726 19.108C36.7326 19.108 36.1566 18.968 35.6446 18.688C35.1406 18.4 34.7446 17.996 34.4566 17.476C34.1766 16.956 34.0366 16.356 34.0366 15.676C34.0366 14.988 34.1766 14.384 34.4566 13.864C34.7366 13.344 35.1286 12.944 35.6326 12.664C36.1366 12.384 36.7166 12.244 37.3726 12.244C38.0046 12.244 38.5686 12.38 39.0646 12.652C39.5686 12.924 39.9566 13.312 40.2286 13.816C40.5086 14.312 40.6486 14.884 40.6486 15.532ZM38.9086 15.052C38.9006 14.62 38.7446 14.276 38.4406 14.02C38.1366 13.756 37.7646 13.624 37.3246 13.624C36.9086 13.624 36.5566 13.752 36.2686 14.008C35.9886 14.256 35.8166 14.604 35.7526 15.052H38.9086ZM41.4429 15.652C41.4429 14.98 41.5749 14.384 41.8389 13.864C42.1109 13.344 42.4749 12.944 42.9309 12.664C43.3949 12.384 43.9109 12.244 44.4789 12.244C44.9749 12.244 45.4069 12.344 45.7749 12.544C46.1509 12.744 46.4509 12.996 46.6749 13.3V12.352H48.3669V19H46.6749V18.028C46.4589 18.34 46.1589 18.6 45.7749 18.808C45.3989 19.008 44.9629 19.108 44.4669 19.108C43.9069 19.108 43.3949 18.964 42.9309 18.676C42.4749 18.388 42.1109 17.984 41.8389 17.464C41.5749 16.936 41.4429 16.332 41.4429 15.652ZM46.6749 15.676C46.6749 15.268 46.5949 14.92 46.4349 14.632C46.2749 14.336 46.0589 14.112 45.7869 13.96C45.5149 13.8 45.2229 13.72 44.9109 13.72C44.5989 13.72 44.3109 13.796 44.0469 13.948C43.7829 14.1 43.5669 14.324 43.3989 14.62C43.2389 14.908 43.1589 15.252 43.1589 15.652C43.1589 16.052 43.2389 16.404 43.3989 16.708C43.5669 17.004 43.7829 17.232 44.0469 17.392C44.3189 17.552 44.6069 17.632 44.9109 17.632C45.2229 17.632 45.5149 17.556 45.7869 17.404C46.0589 17.244 46.2749 17.02 46.4349 16.732C46.5949 16.436 46.6749 16.084 46.6749 15.676ZM52.5517 19.108C52.0077 19.108 51.5197 19.012 51.0877 18.82C50.6557 18.62 50.3117 18.352 50.0557 18.016C49.8077 17.68 49.6717 17.308 49.6477 16.9H51.3397C51.3717 17.156 51.4957 17.368 51.7117 17.536C51.9357 17.704 52.2117 17.788 52.5397 17.788C52.8597 17.788 53.1077 17.724 53.2837 17.596C53.4677 17.468 53.5597 17.304 53.5597 17.104C53.5597 16.888 53.4477 16.728 53.2237 16.624C53.0077 16.512 52.6597 16.392 52.1797 16.264C51.6837 16.144 51.2757 16.02 50.9557 15.892C50.6437 15.764 50.3717 15.568 50.1397 15.304C49.9157 15.04 49.8037 14.684 49.8037 14.236C49.8037 13.868 49.9077 13.532 50.1157 13.228C50.3317 12.924 50.6357 12.684 51.0277 12.508C51.4277 12.332 51.8957 12.244 52.4317 12.244C53.2237 12.244 53.8557 12.444 54.3277 12.844C54.7997 13.236 55.0597 13.768 55.1077 14.44H53.4997C53.4757 14.176 53.3637 13.968 53.1637 13.816C52.9717 13.656 52.7117 13.576 52.3837 13.576C52.0797 13.576 51.8437 13.632 51.6757 13.744C51.5157 13.856 51.4357 14.012 51.4357 14.212C51.4357 14.436 51.5477 14.608 51.7717 14.728C51.9957 14.84 52.3437 14.956 52.8157 15.076C53.2957 15.196 53.6917 15.32 54.0037 15.448C54.3157 15.576 54.5837 15.776 54.8077 16.048C55.0397 16.312 55.1597 16.664 55.1677 17.104C55.1677 17.488 55.0597 17.832 54.8437 18.136C54.6357 18.44 54.3317 18.68 53.9317 18.856C53.5397 19.024 53.0797 19.108 52.5517 19.108ZM62.7268 15.532C62.7268 15.772 62.7108 15.988 62.6788 16.18H57.8188C57.8588 16.66 58.0268 17.036 58.3228 17.308C58.6188 17.58 58.9828 17.716 59.4148 17.716C60.0388 17.716 60.4828 17.448 60.7468 16.912H62.5588C62.3668 17.552 61.9988 18.08 61.4548 18.496C60.9108 18.904 60.2428 19.108 59.4508 19.108C58.8108 19.108 58.2348 18.968 57.7228 18.688C57.2188 18.4 56.8228 17.996 56.5348 17.476C56.2548 16.956 56.1147 16.356 56.1147 15.676C56.1147 14.988 56.2548 14.384 56.5348 13.864C56.8148 13.344 57.2068 12.944 57.7108 12.664C58.2148 12.384 58.7948 12.244 59.4508 12.244C60.0828 12.244 60.6468 12.38 61.1428 12.652C61.6468 12.924 62.0348 13.312 62.3068 13.816C62.5868 14.312 62.7268 14.884 62.7268 15.532ZM60.9868 15.052C60.9788 14.62 60.8228 14.276 60.5188 14.02C60.2148 13.756 59.8428 13.624 59.4028 13.624C58.9868 13.624 58.6348 13.752 58.3468 14.008C58.0668 14.256 57.8948 14.604 57.8308 15.052H60.9868ZM66.3804 15.652C66.3804 14.98 66.5124 14.384 66.7764 13.864C67.0484 13.344 67.4124 12.944 67.8684 12.664C68.3324 12.384 68.8484 12.244 69.4164 12.244C69.9124 12.244 70.3444 12.344 70.7124 12.544C71.0884 12.744 71.3884 12.996 71.6124 13.3V12.352H73.3044V19H71.6124V18.028C71.3964 18.34 71.0964 18.6 70.7124 18.808C70.3364 19.008 69.9004 19.108 69.4044 19.108C68.8444 19.108 68.3324 18.964 67.8684 18.676C67.4124 18.388 67.0484 17.984 66.7764 17.464C66.5124 16.936 66.3804 16.332 66.3804 15.652ZM71.6124 15.676C71.6124 15.268 71.5324 14.92 71.3724 14.632C71.2124 14.336 70.9964 14.112 70.7244 13.96C70.4524 13.8 70.1604 13.72 69.8484 13.72C69.5364 13.72 69.2484 13.796 68.9844 13.948C68.7204 14.1 68.5044 14.324 68.3364 14.62C68.1764 14.908 68.0964 15.252 68.0964 15.652C68.0964 16.052 68.1764 16.404 68.3364 16.708C68.5044 17.004 68.7204 17.232 68.9844 17.392C69.2564 17.552 69.5444 17.632 69.8484 17.632C70.1604 17.632 70.4524 17.556 70.7244 17.404C70.9964 17.244 71.2124 17.02 71.3724 16.732C71.5324 16.436 71.6124 16.084 71.6124 15.676ZM74.5132 15.652C74.5132 14.98 74.6452 14.384 74.9092 13.864C75.1812 13.344 75.5492 12.944 76.0132 12.664C76.4772 12.384 76.9932 12.244 77.5612 12.244C77.9932 12.244 78.4052 12.34 78.7972 12.532C79.1892 12.716 79.5012 12.964 79.7332 13.276V10.12H81.4372V19H79.7332V18.016C79.5252 18.344 79.2332 18.608 78.8572 18.808C78.4812 19.008 78.0452 19.108 77.5492 19.108C76.9892 19.108 76.4772 18.964 76.0132 18.676C75.5492 18.388 75.1812 17.984 74.9092 17.464C74.6452 16.936 74.5132 16.332 74.5132 15.652ZM79.7452 15.676C79.7452 15.268 79.6652 14.92 79.5052 14.632C79.3452 14.336 79.1292 14.112 78.8572 13.96C78.5852 13.8 78.2932 13.72 77.9812 13.72C77.6692 13.72 77.3812 13.796 77.1172 13.948C76.8532 14.1 76.6372 14.324 76.4692 14.62C76.3092 14.908 76.2292 15.252 76.2292 15.652C76.2292 16.052 76.3092 16.404 76.4692 16.708C76.6372 17.004 76.8532 17.232 77.1172 17.392C77.3892 17.552 77.6772 17.632 77.9812 17.632C78.2932 17.632 78.5852 17.556 78.8572 17.404C79.1292 17.244 79.3452 17.02 79.5052 16.732C79.6652 16.436 79.7452 16.084 79.7452 15.676ZM82.646 15.652C82.646 14.98 82.778 14.384 83.042 13.864C83.314 13.344 83.682 12.944 84.146 12.664C84.61 12.384 85.126 12.244 85.694 12.244C86.126 12.244 86.538 12.34 86.93 12.532C87.322 12.716 87.634 12.964 87.866 13.276V10.12H89.57V19H87.866V18.016C87.658 18.344 87.366 18.608 86.99 18.808C86.614 19.008 86.178 19.108 85.682 19.108C85.122 19.108 84.61 18.964 84.146 18.676C83.682 18.388 83.314 17.984 83.042 17.464C82.778 16.936 82.646 16.332 82.646 15.652ZM87.878 15.676C87.878 15.268 87.798 14.92 87.638 14.632C87.478 14.336 87.262 14.112 86.99 13.96C86.718 13.8 86.426 13.72 86.114 13.72C85.802 13.72 85.514 13.796 85.25 13.948C84.986 14.1 84.77 14.324 84.602 14.62C84.442 14.908 84.362 15.252 84.362 15.652C84.362 16.052 84.442 16.404 84.602 16.708C84.77 17.004 84.986 17.232 85.25 17.392C85.522 17.552 85.81 17.632 86.114 17.632C86.426 17.632 86.718 17.556 86.99 17.404C87.262 17.244 87.478 17.02 87.638 16.732C87.798 16.436 87.878 16.084 87.878 15.676ZM93.6382 15.652C93.6382 14.98 93.7702 14.384 94.0342 13.864C94.3062 13.344 94.6702 12.944 95.1262 12.664C95.5902 12.384 96.1062 12.244 96.6742 12.244C97.1702 12.244 97.6022 12.344 97.9702 12.544C98.3462 12.744 98.6462 12.996 98.8702 13.3V12.352H100.562V19H98.8702V18.028C98.6542 18.34 98.3542 18.6 97.9702 18.808C97.5942 19.008 97.1582 19.108 96.6622 19.108C96.1022 19.108 95.5902 18.964 95.1262 18.676C94.6702 18.388 94.3062 17.984 94.0342 17.464C93.7702 16.936 93.6382 16.332 93.6382 15.652ZM98.8702 15.676C98.8702 15.268 98.7902 14.92 98.6302 14.632C98.4702 14.336 98.2542 14.112 97.9822 13.96C97.7102 13.8 97.4182 13.72 97.1062 13.72C96.7942 13.72 96.5062 13.796 96.2422 13.948C95.9782 14.1 95.7622 14.324 95.5942 14.62C95.4342 14.908 95.3542 15.252 95.3542 15.652C95.3542 16.052 95.4342 16.404 95.5942 16.708C95.7622 17.004 95.9782 17.232 96.2422 17.392C96.5142 17.552 96.8022 17.632 97.1062 17.632C97.4182 17.632 97.7102 17.556 97.9822 17.404C98.2542 17.244 98.4702 17.02 98.6302 16.732C98.7902 16.436 98.8702 16.084 98.8702 15.676ZM104.159 13.732V16.948C104.159 17.172 104.211 17.336 104.315 17.44C104.427 17.536 104.611 17.584 104.867 17.584H105.647V19H104.591C103.175 19 102.467 18.312 102.467 16.936V13.732H101.675V12.352H102.467V10.708H104.159V12.352H105.647V13.732H104.159ZM111.395 10.12V19H109.715V10.12H111.395ZM119.235 15.532C119.235 15.772 119.219 15.988 119.187 16.18H114.327C114.367 16.66 114.535 17.036 114.831 17.308C115.127 17.58 115.491 17.716 115.923 17.716C116.547 17.716 116.991 17.448 117.255 16.912H119.067C118.875 17.552 118.507 18.08 117.963 18.496C117.419 18.904 116.751 19.108 115.959 19.108C115.319 19.108 114.743 18.968 114.231 18.688C113.727 18.4 113.331 17.996 113.043 17.476C112.763 16.956 112.623 16.356 112.623 15.676C112.623 14.988 112.763 14.384 113.043 13.864C113.323 13.344 113.715 12.944 114.219 12.664C114.723 12.384 115.303 12.244 115.959 12.244C116.591 12.244 117.155 12.38 117.651 12.652C118.155 12.924 118.543 13.312 118.815 13.816C119.095 14.312 119.235 14.884 119.235 15.532ZM117.495 15.052C117.487 14.62 117.331 14.276 117.027 14.02C116.723 13.756 116.351 13.624 115.911 13.624C115.495 13.624 115.143 13.752 114.855 14.008C114.575 14.256 114.403 14.604 114.339 15.052H117.495ZM120.029 15.652C120.029 14.98 120.161 14.384 120.425 13.864C120.697 13.344 121.061 12.944 121.517 12.664C121.981 12.384 122.497 12.244 123.065 12.244C123.561 12.244 123.993 12.344 124.361 12.544C124.737 12.744 125.037 12.996 125.261 13.3V12.352H126.953V19H125.261V18.028C125.045 18.34 124.745 18.6 124.361 18.808C123.985 19.008 123.549 19.108 123.053 19.108C122.493 19.108 121.981 18.964 121.517 18.676C121.061 18.388 120.697 17.984 120.425 17.464C120.161 16.936 120.029 16.332 120.029 15.652ZM125.261 15.676C125.261 15.268 125.181 14.92 125.021 14.632C124.861 14.336 124.645 14.112 124.373 13.96C124.101 13.8 123.809 13.72 123.497 13.72C123.185 13.72 122.897 13.796 122.633 13.948C122.369 14.1 122.153 14.324 121.985 14.62C121.825 14.908 121.745 15.252 121.745 15.652C121.745 16.052 121.825 16.404 121.985 16.708C122.153 17.004 122.369 17.232 122.633 17.392C122.905 17.552 123.193 17.632 123.497 17.632C123.809 17.632 124.101 17.556 124.373 17.404C124.645 17.244 124.861 17.02 125.021 16.732C125.181 16.436 125.261 16.084 125.261 15.676ZM131.138 19.108C130.594 19.108 130.106 19.012 129.674 18.82C129.242 18.62 128.898 18.352 128.642 18.016C128.394 17.68 128.258 17.308 128.234 16.9H129.926C129.958 17.156 130.082 17.368 130.298 17.536C130.522 17.704 130.798 17.788 131.126 17.788C131.446 17.788 131.694 17.724 131.87 17.596C132.054 17.468 132.146 17.304 132.146 17.104C132.146 16.888 132.034 16.728 131.81 16.624C131.594 16.512 131.246 16.392 130.766 16.264C130.27 16.144 129.862 16.02 129.542 15.892C129.23 15.764 128.958 15.568 128.726 15.304C128.502 15.04 128.39 14.684 128.39 14.236C128.39 13.868 128.494 13.532 128.702 13.228C128.918 12.924 129.222 12.684 129.614 12.508C130.014 12.332 130.482 12.244 131.018 12.244C131.81 12.244 132.442 12.444 132.914 12.844C133.386 13.236 133.646 13.768 133.694 14.44H132.086C132.062 14.176 131.95 13.968 131.75 13.816C131.558 13.656 131.298 13.576 130.97 13.576C130.666 13.576 130.43 13.632 130.262 13.744C130.102 13.856 130.022 14.012 130.022 14.212C130.022 14.436 130.134 14.608 130.358 14.728C130.582 14.84 130.93 14.956 131.402 15.076C131.882 15.196 132.278 15.32 132.59 15.448C132.902 15.576 133.17 15.776 133.394 16.048C133.626 16.312 133.746 16.664 133.754 17.104C133.754 17.488 133.646 17.832 133.43 18.136C133.222 18.44 132.918 18.68 132.518 18.856C132.126 19.024 131.666 19.108 131.138 19.108ZM137.089 13.732V16.948C137.089 17.172 137.141 17.336 137.245 17.44C137.357 17.536 137.541 17.584 137.797 17.584H138.577V19H137.521C136.105 19 135.397 18.312 135.397 16.936V13.732H134.605V12.352H135.397V10.708H137.089V12.352H138.577V13.732H137.089ZM145.596 19.108C144.956 19.108 144.38 18.968 143.868 18.688C143.356 18.4 142.952 17.996 142.656 17.476C142.368 16.956 142.224 16.356 142.224 15.676C142.224 14.996 142.372 14.396 142.668 13.876C142.972 13.356 143.384 12.956 143.904 12.676C144.424 12.388 145.004 12.244 145.644 12.244C146.284 12.244 146.864 12.388 147.384 12.676C147.904 12.956 148.312 13.356 148.608 13.876C148.912 14.396 149.064 14.996 149.064 15.676C149.064 16.356 148.908 16.956 148.596 17.476C148.292 17.996 147.876 18.4 147.348 18.688C146.828 18.968 146.244 19.108 145.596 19.108ZM145.596 17.644C145.9 17.644 146.184 17.572 146.448 17.428C146.72 17.276 146.936 17.052 147.096 16.756C147.256 16.46 147.336 16.1 147.336 15.676C147.336 15.044 147.168 14.56 146.832 14.224C146.504 13.88 146.1 13.708 145.62 13.708C145.14 13.708 144.736 13.88 144.408 14.224C144.088 14.56 143.928 15.044 143.928 15.676C143.928 16.308 144.084 16.796 144.396 17.14C144.716 17.476 145.116 17.644 145.596 17.644ZM153.981 12.256C154.773 12.256 155.413 12.508 155.901 13.012C156.389 13.508 156.633 14.204 156.633 15.1V19H154.953V15.328C154.953 14.8 154.821 14.396 154.557 14.116C154.293 13.828 153.933 13.684 153.477 13.684C153.013 13.684 152.645 13.828 152.373 14.116C152.109 14.396 151.977 14.8 151.977 15.328V19H150.297V12.352H151.977V13.18C152.201 12.892 152.485 12.668 152.829 12.508C153.181 12.34 153.565 12.256 153.981 12.256ZM164.41 15.532C164.41 15.772 164.394 15.988 164.362 16.18H159.502C159.542 16.66 159.71 17.036 160.006 17.308C160.302 17.58 160.666 17.716 161.098 17.716C161.722 17.716 162.166 17.448 162.43 16.912H164.242C164.05 17.552 163.682 18.08 163.138 18.496C162.594 18.904 161.926 19.108 161.134 19.108C160.494 19.108 159.918 18.968 159.406 18.688C158.902 18.4 158.506 17.996 158.218 17.476C157.938 16.956 157.798 16.356 157.798 15.676C157.798 14.988 157.938 14.384 158.218 13.864C158.498 13.344 158.89 12.944 159.394 12.664C159.898 12.384 160.478 12.244 161.134 12.244C161.766 12.244 162.33 12.38 162.826 12.652C163.33 12.924 163.718 13.312 163.99 13.816C164.27 14.312 164.41 14.884 164.41 15.532ZM162.67 15.052C162.662 14.62 162.506 14.276 162.202 14.02C161.898 13.756 161.526 13.624 161.086 13.624C160.67 13.624 160.318 13.752 160.03 14.008C159.75 14.256 159.578 14.604 159.514 15.052H162.67ZM169.348 11.56C169.052 11.56 168.804 11.468 168.604 11.284C168.412 11.092 168.316 10.856 168.316 10.576C168.316 10.296 168.412 10.064 168.604 9.88C168.804 9.688 169.052 9.592 169.348 9.592C169.644 9.592 169.888 9.688 170.08 9.88C170.28 10.064 170.38 10.296 170.38 10.576C170.38 10.856 170.28 11.092 170.08 11.284C169.888 11.468 169.644 11.56 169.348 11.56ZM170.176 12.352V19H168.496V12.352H170.176ZM173.792 13.732V16.948C173.792 17.172 173.844 17.336 173.948 17.44C174.06 17.536 174.244 17.584 174.5 17.584H175.28V19H174.224C172.808 19 172.1 18.312 172.1 16.936V13.732H171.308V12.352H172.1V10.708H173.792V12.352H175.28V13.732H173.792ZM182.668 15.532C182.668 15.772 182.652 15.988 182.62 16.18H177.76C177.8 16.66 177.968 17.036 178.264 17.308C178.56 17.58 178.924 17.716 179.356 17.716C179.98 17.716 180.424 17.448 180.688 16.912H182.5C182.308 17.552 181.94 18.08 181.396 18.496C180.852 18.904 180.184 19.108 179.392 19.108C178.752 19.108 178.176 18.968 177.664 18.688C177.16 18.4 176.764 17.996 176.476 17.476C176.196 16.956 176.056 16.356 176.056 15.676C176.056 14.988 176.196 14.384 176.476 13.864C176.756 13.344 177.148 12.944 177.652 12.664C178.156 12.384 178.736 12.244 179.392 12.244C180.024 12.244 180.588 12.38 181.084 12.652C181.588 12.924 181.976 13.312 182.248 13.816C182.528 14.312 182.668 14.884 182.668 15.532ZM180.928 15.052C180.92 14.62 180.764 14.276 180.46 14.02C180.156 13.756 179.784 13.624 179.344 13.624C178.928 13.624 178.576 13.752 178.288 14.008C178.008 14.256 177.836 14.604 177.772 15.052H180.928ZM192.15 12.256C192.966 12.256 193.622 12.508 194.118 13.012C194.622 13.508 194.874 14.204 194.874 15.1V19H193.194V15.328C193.194 14.808 193.062 14.412 192.798 14.14C192.534 13.86 192.174 13.72 191.718 13.72C191.262 13.72 190.898 13.86 190.626 14.14C190.362 14.412 190.23 14.808 190.23 15.328V19H188.55V15.328C188.55 14.808 188.418 14.412 188.154 14.14C187.89 13.86 187.53 13.72 187.074 13.72C186.61 13.72 186.242 13.86 185.97 14.14C185.706 14.412 185.574 14.808 185.574 15.328V19H183.894V12.352H185.574V13.156C185.79 12.876 186.066 12.656 186.402 12.496C186.746 12.336 187.122 12.256 187.53 12.256C188.05 12.256 188.514 12.368 188.922 12.592C189.33 12.808 189.646 13.12 189.87 13.528C190.086 13.144 190.398 12.836 190.806 12.604C191.222 12.372 191.67 12.256 192.15 12.256Z" fill="black"/>
<path d="M99.5624 24.5L109 38.122L118.438 24.5H99.5624Z" fill="white" stroke="black"/>
<rect x="84" y="22" width="51" height="7" fill="white"/>
</svg>
